M48
; DRILL file {KiCad 7.0.8} date Tue Dec 26 11:26:26 2023
; FORMAT={-:-/ absolute / metric / decimal}
; #@! TF.CreationDate,2023-12-26T11:26:26-03:00
; #@! TF.GenerationSoftware,Kicad,Pcbnew,7.0.8
; #@! TF.FileFunction,Plated,1,2,PTH
FMAT,2
METRIC
; #@! TA.AperFunction,Plated,PTH,ComponentDrill
T1C1.000
%
G90
G05
T1
X124.46Y-60.96
X124.46Y-63.5
X124.46Y-66.04
X124.46Y-68.58
X124.46Y-71.12
X134.66Y-60.96
X134.66Y-63.5
X134.66Y-66.04
X134.66Y-68.58
X134.66Y-71.12
X139.31Y-60.96
X139.31Y-63.5
X139.31Y-66.04
X139.31Y-68.58
X139.31Y-71.12
X139.7Y-81.28
X142.24Y-81.28
X143.96Y-60.96
X143.96Y-63.5
X143.96Y-66.04
X143.96Y-68.58
X143.96Y-71.12
X144.78Y-81.28
X147.32Y-81.28
X148.61Y-60.96
X148.61Y-63.5
X148.61Y-66.04
X148.61Y-68.58
X148.61Y-71.12
X149.86Y-81.28
X153.26Y-60.96
X153.26Y-63.5
X153.26Y-66.04
X153.26Y-68.58
X153.26Y-71.12
T0
M30
