%TF.GenerationSoftware,KiCad,Pcbnew,7.0.8*%
%TF.CreationDate,2023-12-26T11:26:24-03:00*%
%TF.ProjectId,teste2,74657374-6532-42e6-9b69-6361645f7063,rev?*%
%TF.SameCoordinates,Original*%
%TF.FileFunction,Drillmap*%
%TF.FilePolarity,Positive*%
%FSLAX45Y45*%
G04 Gerber Fmt 4.5, Leading zero omitted, Abs format (unit mm)*
G04 Created by KiCad (PCBNEW 7.0.8) date 2023-12-26 11:26:24*
%MOMM*%
%LPD*%
G01*
G04 APERTURE LIST*
%ADD10C,0.100000*%
%ADD11C,0.200000*%
G04 APERTURE END LIST*
D10*
X15647303Y-8191500D02*
G75*
G03*
X15647303Y-8191500I-89803J0D01*
G01*
X12472303Y-8191500D02*
G75*
G03*
X12472303Y-8191500I-89803J0D01*
G01*
X15647303Y-5778500D02*
G75*
G03*
X15647303Y-5778500I-89803J0D01*
G01*
X12535803Y-5778500D02*
G75*
G03*
X12535803Y-5778500I-89803J0D01*
G01*
X12192000Y-5588000D02*
X15748000Y-5588000D01*
X15748000Y-8382000D01*
X12192000Y-8382000D01*
X12192000Y-5588000D01*
D11*
D10*
X12396000Y-6046000D02*
X12496000Y-6146000D01*
X12496000Y-6046000D02*
X12396000Y-6146000D01*
X12396000Y-6300000D02*
X12496000Y-6400000D01*
X12496000Y-6300000D02*
X12396000Y-6400000D01*
X12396000Y-6554000D02*
X12496000Y-6654000D01*
X12496000Y-6554000D02*
X12396000Y-6654000D01*
X12396000Y-6808000D02*
X12496000Y-6908000D01*
X12496000Y-6808000D02*
X12396000Y-6908000D01*
X12396000Y-7062000D02*
X12496000Y-7162000D01*
X12496000Y-7062000D02*
X12396000Y-7162000D01*
X13416000Y-6046000D02*
X13516000Y-6146000D01*
X13516000Y-6046000D02*
X13416000Y-6146000D01*
X13416000Y-6300000D02*
X13516000Y-6400000D01*
X13516000Y-6300000D02*
X13416000Y-6400000D01*
X13416000Y-6554000D02*
X13516000Y-6654000D01*
X13516000Y-6554000D02*
X13416000Y-6654000D01*
X13416000Y-6808000D02*
X13516000Y-6908000D01*
X13516000Y-6808000D02*
X13416000Y-6908000D01*
X13416000Y-7062000D02*
X13516000Y-7162000D01*
X13516000Y-7062000D02*
X13416000Y-7162000D01*
X13881000Y-6046000D02*
X13981000Y-6146000D01*
X13981000Y-6046000D02*
X13881000Y-6146000D01*
X13881000Y-6300000D02*
X13981000Y-6400000D01*
X13981000Y-6300000D02*
X13881000Y-6400000D01*
X13881000Y-6554000D02*
X13981000Y-6654000D01*
X13981000Y-6554000D02*
X13881000Y-6654000D01*
X13881000Y-6808000D02*
X13981000Y-6908000D01*
X13981000Y-6808000D02*
X13881000Y-6908000D01*
X13881000Y-7062000D02*
X13981000Y-7162000D01*
X13981000Y-7062000D02*
X13881000Y-7162000D01*
X13920000Y-8078000D02*
X14020000Y-8178000D01*
X14020000Y-8078000D02*
X13920000Y-8178000D01*
X14174000Y-8078000D02*
X14274000Y-8178000D01*
X14274000Y-8078000D02*
X14174000Y-8178000D01*
X14346000Y-6046000D02*
X14446000Y-6146000D01*
X14446000Y-6046000D02*
X14346000Y-6146000D01*
X14346000Y-6300000D02*
X14446000Y-6400000D01*
X14446000Y-6300000D02*
X14346000Y-6400000D01*
X14346000Y-6554000D02*
X14446000Y-6654000D01*
X14446000Y-6554000D02*
X14346000Y-6654000D01*
X14346000Y-6808000D02*
X14446000Y-6908000D01*
X14446000Y-6808000D02*
X14346000Y-6908000D01*
X14346000Y-7062000D02*
X14446000Y-7162000D01*
X14446000Y-7062000D02*
X14346000Y-7162000D01*
X14428000Y-8078000D02*
X14528000Y-8178000D01*
X14528000Y-8078000D02*
X14428000Y-8178000D01*
X14682000Y-8078000D02*
X14782000Y-8178000D01*
X14782000Y-8078000D02*
X14682000Y-8178000D01*
X14811000Y-6046000D02*
X14911000Y-6146000D01*
X14911000Y-6046000D02*
X14811000Y-6146000D01*
X14811000Y-6300000D02*
X14911000Y-6400000D01*
X14911000Y-6300000D02*
X14811000Y-6400000D01*
X14811000Y-6554000D02*
X14911000Y-6654000D01*
X14911000Y-6554000D02*
X14811000Y-6654000D01*
X14811000Y-6808000D02*
X14911000Y-6908000D01*
X14911000Y-6808000D02*
X14811000Y-6908000D01*
X14811000Y-7062000D02*
X14911000Y-7162000D01*
X14911000Y-7062000D02*
X14811000Y-7162000D01*
X14936000Y-8078000D02*
X15036000Y-8178000D01*
X15036000Y-8078000D02*
X14936000Y-8178000D01*
X15276000Y-6046000D02*
X15376000Y-6146000D01*
X15376000Y-6046000D02*
X15276000Y-6146000D01*
X15276000Y-6300000D02*
X15376000Y-6400000D01*
X15376000Y-6300000D02*
X15276000Y-6400000D01*
X15276000Y-6554000D02*
X15376000Y-6654000D01*
X15376000Y-6554000D02*
X15276000Y-6654000D01*
X15276000Y-6808000D02*
X15376000Y-6908000D01*
X15376000Y-6808000D02*
X15276000Y-6908000D01*
X15276000Y-7062000D02*
X15376000Y-7162000D01*
X15376000Y-7062000D02*
X15276000Y-7162000D01*
D11*
X12447777Y-8698484D02*
X12447777Y-8498484D01*
X12447777Y-8498484D02*
X12495396Y-8498484D01*
X12495396Y-8498484D02*
X12523967Y-8508008D01*
X12523967Y-8508008D02*
X12543015Y-8527055D01*
X12543015Y-8527055D02*
X12552539Y-8546103D01*
X12552539Y-8546103D02*
X12562062Y-8584198D01*
X12562062Y-8584198D02*
X12562062Y-8612770D01*
X12562062Y-8612770D02*
X12552539Y-8650865D01*
X12552539Y-8650865D02*
X12543015Y-8669912D01*
X12543015Y-8669912D02*
X12523967Y-8688960D01*
X12523967Y-8688960D02*
X12495396Y-8698484D01*
X12495396Y-8698484D02*
X12447777Y-8698484D01*
X12647777Y-8698484D02*
X12647777Y-8565150D01*
X12647777Y-8603246D02*
X12657301Y-8584198D01*
X12657301Y-8584198D02*
X12666824Y-8574674D01*
X12666824Y-8574674D02*
X12685872Y-8565150D01*
X12685872Y-8565150D02*
X12704920Y-8565150D01*
X12771586Y-8698484D02*
X12771586Y-8565150D01*
X12771586Y-8498484D02*
X12762062Y-8508008D01*
X12762062Y-8508008D02*
X12771586Y-8517531D01*
X12771586Y-8517531D02*
X12781110Y-8508008D01*
X12781110Y-8508008D02*
X12771586Y-8498484D01*
X12771586Y-8498484D02*
X12771586Y-8517531D01*
X12895396Y-8698484D02*
X12876348Y-8688960D01*
X12876348Y-8688960D02*
X12866824Y-8669912D01*
X12866824Y-8669912D02*
X12866824Y-8498484D01*
X13000158Y-8698484D02*
X12981110Y-8688960D01*
X12981110Y-8688960D02*
X12971586Y-8669912D01*
X12971586Y-8669912D02*
X12971586Y-8498484D01*
X13228729Y-8698484D02*
X13228729Y-8498484D01*
X13228729Y-8498484D02*
X13295396Y-8641341D01*
X13295396Y-8641341D02*
X13362062Y-8498484D01*
X13362062Y-8498484D02*
X13362062Y-8698484D01*
X13543015Y-8698484D02*
X13543015Y-8593722D01*
X13543015Y-8593722D02*
X13533491Y-8574674D01*
X13533491Y-8574674D02*
X13514443Y-8565150D01*
X13514443Y-8565150D02*
X13476348Y-8565150D01*
X13476348Y-8565150D02*
X13457301Y-8574674D01*
X13543015Y-8688960D02*
X13523967Y-8698484D01*
X13523967Y-8698484D02*
X13476348Y-8698484D01*
X13476348Y-8698484D02*
X13457301Y-8688960D01*
X13457301Y-8688960D02*
X13447777Y-8669912D01*
X13447777Y-8669912D02*
X13447777Y-8650865D01*
X13447777Y-8650865D02*
X13457301Y-8631817D01*
X13457301Y-8631817D02*
X13476348Y-8622293D01*
X13476348Y-8622293D02*
X13523967Y-8622293D01*
X13523967Y-8622293D02*
X13543015Y-8612770D01*
X13638253Y-8565150D02*
X13638253Y-8765150D01*
X13638253Y-8574674D02*
X13657301Y-8565150D01*
X13657301Y-8565150D02*
X13695396Y-8565150D01*
X13695396Y-8565150D02*
X13714443Y-8574674D01*
X13714443Y-8574674D02*
X13723967Y-8584198D01*
X13723967Y-8584198D02*
X13733491Y-8603246D01*
X13733491Y-8603246D02*
X13733491Y-8660389D01*
X13733491Y-8660389D02*
X13723967Y-8679436D01*
X13723967Y-8679436D02*
X13714443Y-8688960D01*
X13714443Y-8688960D02*
X13695396Y-8698484D01*
X13695396Y-8698484D02*
X13657301Y-8698484D01*
X13657301Y-8698484D02*
X13638253Y-8688960D01*
X13819205Y-8679436D02*
X13828729Y-8688960D01*
X13828729Y-8688960D02*
X13819205Y-8698484D01*
X13819205Y-8698484D02*
X13809682Y-8688960D01*
X13809682Y-8688960D02*
X13819205Y-8679436D01*
X13819205Y-8679436D02*
X13819205Y-8698484D01*
X13819205Y-8574674D02*
X13828729Y-8584198D01*
X13828729Y-8584198D02*
X13819205Y-8593722D01*
X13819205Y-8593722D02*
X13809682Y-8584198D01*
X13809682Y-8584198D02*
X13819205Y-8574674D01*
X13819205Y-8574674D02*
X13819205Y-8593722D01*
D10*
X12087000Y-8977000D02*
X12187000Y-9077000D01*
X12187000Y-8977000D02*
X12087000Y-9077000D01*
D11*
X12552539Y-9118484D02*
X12438253Y-9118484D01*
X12495396Y-9118484D02*
X12495396Y-8918484D01*
X12495396Y-8918484D02*
X12476348Y-8947055D01*
X12476348Y-8947055D02*
X12457301Y-8966103D01*
X12457301Y-8966103D02*
X12438253Y-8975627D01*
X12638253Y-9099436D02*
X12647777Y-9108960D01*
X12647777Y-9108960D02*
X12638253Y-9118484D01*
X12638253Y-9118484D02*
X12628729Y-9108960D01*
X12628729Y-9108960D02*
X12638253Y-9099436D01*
X12638253Y-9099436D02*
X12638253Y-9118484D01*
X12771586Y-8918484D02*
X12790634Y-8918484D01*
X12790634Y-8918484D02*
X12809682Y-8928008D01*
X12809682Y-8928008D02*
X12819205Y-8937531D01*
X12819205Y-8937531D02*
X12828729Y-8956579D01*
X12828729Y-8956579D02*
X12838253Y-8994674D01*
X12838253Y-8994674D02*
X12838253Y-9042293D01*
X12838253Y-9042293D02*
X12828729Y-9080389D01*
X12828729Y-9080389D02*
X12819205Y-9099436D01*
X12819205Y-9099436D02*
X12809682Y-9108960D01*
X12809682Y-9108960D02*
X12790634Y-9118484D01*
X12790634Y-9118484D02*
X12771586Y-9118484D01*
X12771586Y-9118484D02*
X12752539Y-9108960D01*
X12752539Y-9108960D02*
X12743015Y-9099436D01*
X12743015Y-9099436D02*
X12733491Y-9080389D01*
X12733491Y-9080389D02*
X12723967Y-9042293D01*
X12723967Y-9042293D02*
X12723967Y-8994674D01*
X12723967Y-8994674D02*
X12733491Y-8956579D01*
X12733491Y-8956579D02*
X12743015Y-8937531D01*
X12743015Y-8937531D02*
X12752539Y-8928008D01*
X12752539Y-8928008D02*
X12771586Y-8918484D01*
X12962062Y-8918484D02*
X12981110Y-8918484D01*
X12981110Y-8918484D02*
X13000158Y-8928008D01*
X13000158Y-8928008D02*
X13009682Y-8937531D01*
X13009682Y-8937531D02*
X13019205Y-8956579D01*
X13019205Y-8956579D02*
X13028729Y-8994674D01*
X13028729Y-8994674D02*
X13028729Y-9042293D01*
X13028729Y-9042293D02*
X13019205Y-9080389D01*
X13019205Y-9080389D02*
X13009682Y-9099436D01*
X13009682Y-9099436D02*
X13000158Y-9108960D01*
X13000158Y-9108960D02*
X12981110Y-9118484D01*
X12981110Y-9118484D02*
X12962062Y-9118484D01*
X12962062Y-9118484D02*
X12943015Y-9108960D01*
X12943015Y-9108960D02*
X12933491Y-9099436D01*
X12933491Y-9099436D02*
X12923967Y-9080389D01*
X12923967Y-9080389D02*
X12914443Y-9042293D01*
X12914443Y-9042293D02*
X12914443Y-8994674D01*
X12914443Y-8994674D02*
X12923967Y-8956579D01*
X12923967Y-8956579D02*
X12933491Y-8937531D01*
X12933491Y-8937531D02*
X12943015Y-8928008D01*
X12943015Y-8928008D02*
X12962062Y-8918484D01*
X13152539Y-8918484D02*
X13171586Y-8918484D01*
X13171586Y-8918484D02*
X13190634Y-8928008D01*
X13190634Y-8928008D02*
X13200158Y-8937531D01*
X13200158Y-8937531D02*
X13209682Y-8956579D01*
X13209682Y-8956579D02*
X13219205Y-8994674D01*
X13219205Y-8994674D02*
X13219205Y-9042293D01*
X13219205Y-9042293D02*
X13209682Y-9080389D01*
X13209682Y-9080389D02*
X13200158Y-9099436D01*
X13200158Y-9099436D02*
X13190634Y-9108960D01*
X13190634Y-9108960D02*
X13171586Y-9118484D01*
X13171586Y-9118484D02*
X13152539Y-9118484D01*
X13152539Y-9118484D02*
X13133491Y-9108960D01*
X13133491Y-9108960D02*
X13123967Y-9099436D01*
X13123967Y-9099436D02*
X13114443Y-9080389D01*
X13114443Y-9080389D02*
X13104920Y-9042293D01*
X13104920Y-9042293D02*
X13104920Y-8994674D01*
X13104920Y-8994674D02*
X13114443Y-8956579D01*
X13114443Y-8956579D02*
X13123967Y-8937531D01*
X13123967Y-8937531D02*
X13133491Y-8928008D01*
X13133491Y-8928008D02*
X13152539Y-8918484D01*
X13304920Y-9118484D02*
X13304920Y-8985150D01*
X13304920Y-9004198D02*
X13314443Y-8994674D01*
X13314443Y-8994674D02*
X13333491Y-8985150D01*
X13333491Y-8985150D02*
X13362063Y-8985150D01*
X13362063Y-8985150D02*
X13381110Y-8994674D01*
X13381110Y-8994674D02*
X13390634Y-9013722D01*
X13390634Y-9013722D02*
X13390634Y-9118484D01*
X13390634Y-9013722D02*
X13400158Y-8994674D01*
X13400158Y-8994674D02*
X13419205Y-8985150D01*
X13419205Y-8985150D02*
X13447777Y-8985150D01*
X13447777Y-8985150D02*
X13466824Y-8994674D01*
X13466824Y-8994674D02*
X13476348Y-9013722D01*
X13476348Y-9013722D02*
X13476348Y-9118484D01*
X13571586Y-9118484D02*
X13571586Y-8985150D01*
X13571586Y-9004198D02*
X13581110Y-8994674D01*
X13581110Y-8994674D02*
X13600158Y-8985150D01*
X13600158Y-8985150D02*
X13628729Y-8985150D01*
X13628729Y-8985150D02*
X13647777Y-8994674D01*
X13647777Y-8994674D02*
X13657301Y-9013722D01*
X13657301Y-9013722D02*
X13657301Y-9118484D01*
X13657301Y-9013722D02*
X13666824Y-8994674D01*
X13666824Y-8994674D02*
X13685872Y-8985150D01*
X13685872Y-8985150D02*
X13714443Y-8985150D01*
X13714443Y-8985150D02*
X13733491Y-8994674D01*
X13733491Y-8994674D02*
X13743015Y-9013722D01*
X13743015Y-9013722D02*
X13743015Y-9118484D01*
X14133491Y-8908960D02*
X13962063Y-9166103D01*
X14390634Y-8918484D02*
X14409682Y-8918484D01*
X14409682Y-8918484D02*
X14428729Y-8928008D01*
X14428729Y-8928008D02*
X14438253Y-8937531D01*
X14438253Y-8937531D02*
X14447777Y-8956579D01*
X14447777Y-8956579D02*
X14457301Y-8994674D01*
X14457301Y-8994674D02*
X14457301Y-9042293D01*
X14457301Y-9042293D02*
X14447777Y-9080389D01*
X14447777Y-9080389D02*
X14438253Y-9099436D01*
X14438253Y-9099436D02*
X14428729Y-9108960D01*
X14428729Y-9108960D02*
X14409682Y-9118484D01*
X14409682Y-9118484D02*
X14390634Y-9118484D01*
X14390634Y-9118484D02*
X14371586Y-9108960D01*
X14371586Y-9108960D02*
X14362063Y-9099436D01*
X14362063Y-9099436D02*
X14352539Y-9080389D01*
X14352539Y-9080389D02*
X14343015Y-9042293D01*
X14343015Y-9042293D02*
X14343015Y-8994674D01*
X14343015Y-8994674D02*
X14352539Y-8956579D01*
X14352539Y-8956579D02*
X14362063Y-8937531D01*
X14362063Y-8937531D02*
X14371586Y-8928008D01*
X14371586Y-8928008D02*
X14390634Y-8918484D01*
X14543015Y-9099436D02*
X14552539Y-9108960D01*
X14552539Y-9108960D02*
X14543015Y-9118484D01*
X14543015Y-9118484D02*
X14533491Y-9108960D01*
X14533491Y-9108960D02*
X14543015Y-9099436D01*
X14543015Y-9099436D02*
X14543015Y-9118484D01*
X14676348Y-8918484D02*
X14695396Y-8918484D01*
X14695396Y-8918484D02*
X14714444Y-8928008D01*
X14714444Y-8928008D02*
X14723967Y-8937531D01*
X14723967Y-8937531D02*
X14733491Y-8956579D01*
X14733491Y-8956579D02*
X14743015Y-8994674D01*
X14743015Y-8994674D02*
X14743015Y-9042293D01*
X14743015Y-9042293D02*
X14733491Y-9080389D01*
X14733491Y-9080389D02*
X14723967Y-9099436D01*
X14723967Y-9099436D02*
X14714444Y-9108960D01*
X14714444Y-9108960D02*
X14695396Y-9118484D01*
X14695396Y-9118484D02*
X14676348Y-9118484D01*
X14676348Y-9118484D02*
X14657301Y-9108960D01*
X14657301Y-9108960D02*
X14647777Y-9099436D01*
X14647777Y-9099436D02*
X14638253Y-9080389D01*
X14638253Y-9080389D02*
X14628729Y-9042293D01*
X14628729Y-9042293D02*
X14628729Y-8994674D01*
X14628729Y-8994674D02*
X14638253Y-8956579D01*
X14638253Y-8956579D02*
X14647777Y-8937531D01*
X14647777Y-8937531D02*
X14657301Y-8928008D01*
X14657301Y-8928008D02*
X14676348Y-8918484D01*
X14809682Y-8918484D02*
X14933491Y-8918484D01*
X14933491Y-8918484D02*
X14866825Y-8994674D01*
X14866825Y-8994674D02*
X14895396Y-8994674D01*
X14895396Y-8994674D02*
X14914444Y-9004198D01*
X14914444Y-9004198D02*
X14923967Y-9013722D01*
X14923967Y-9013722D02*
X14933491Y-9032770D01*
X14933491Y-9032770D02*
X14933491Y-9080389D01*
X14933491Y-9080389D02*
X14923967Y-9099436D01*
X14923967Y-9099436D02*
X14914444Y-9108960D01*
X14914444Y-9108960D02*
X14895396Y-9118484D01*
X14895396Y-9118484D02*
X14838253Y-9118484D01*
X14838253Y-9118484D02*
X14819206Y-9108960D01*
X14819206Y-9108960D02*
X14809682Y-9099436D01*
X15028729Y-9118484D02*
X15066825Y-9118484D01*
X15066825Y-9118484D02*
X15085872Y-9108960D01*
X15085872Y-9108960D02*
X15095396Y-9099436D01*
X15095396Y-9099436D02*
X15114444Y-9070865D01*
X15114444Y-9070865D02*
X15123967Y-9032770D01*
X15123967Y-9032770D02*
X15123967Y-8956579D01*
X15123967Y-8956579D02*
X15114444Y-8937531D01*
X15114444Y-8937531D02*
X15104920Y-8928008D01*
X15104920Y-8928008D02*
X15085872Y-8918484D01*
X15085872Y-8918484D02*
X15047777Y-8918484D01*
X15047777Y-8918484D02*
X15028729Y-8928008D01*
X15028729Y-8928008D02*
X15019206Y-8937531D01*
X15019206Y-8937531D02*
X15009682Y-8956579D01*
X15009682Y-8956579D02*
X15009682Y-9004198D01*
X15009682Y-9004198D02*
X15019206Y-9023246D01*
X15019206Y-9023246D02*
X15028729Y-9032770D01*
X15028729Y-9032770D02*
X15047777Y-9042293D01*
X15047777Y-9042293D02*
X15085872Y-9042293D01*
X15085872Y-9042293D02*
X15104920Y-9032770D01*
X15104920Y-9032770D02*
X15114444Y-9023246D01*
X15114444Y-9023246D02*
X15123967Y-9004198D01*
X15295396Y-8985150D02*
X15295396Y-9118484D01*
X15247777Y-8908960D02*
X15200158Y-9051817D01*
X15200158Y-9051817D02*
X15323967Y-9051817D01*
X15390634Y-8918484D02*
X15390634Y-8956579D01*
X15466825Y-8918484D02*
X15466825Y-8956579D01*
X15762063Y-9194674D02*
X15752539Y-9185150D01*
X15752539Y-9185150D02*
X15733491Y-9156579D01*
X15733491Y-9156579D02*
X15723968Y-9137531D01*
X15723968Y-9137531D02*
X15714444Y-9108960D01*
X15714444Y-9108960D02*
X15704920Y-9061341D01*
X15704920Y-9061341D02*
X15704920Y-9023246D01*
X15704920Y-9023246D02*
X15714444Y-8975627D01*
X15714444Y-8975627D02*
X15723968Y-8947055D01*
X15723968Y-8947055D02*
X15733491Y-8928008D01*
X15733491Y-8928008D02*
X15752539Y-8899436D01*
X15752539Y-8899436D02*
X15762063Y-8889912D01*
X15819206Y-8918484D02*
X15943015Y-8918484D01*
X15943015Y-8918484D02*
X15876348Y-8994674D01*
X15876348Y-8994674D02*
X15904920Y-8994674D01*
X15904920Y-8994674D02*
X15923968Y-9004198D01*
X15923968Y-9004198D02*
X15933491Y-9013722D01*
X15933491Y-9013722D02*
X15943015Y-9032770D01*
X15943015Y-9032770D02*
X15943015Y-9080389D01*
X15943015Y-9080389D02*
X15933491Y-9099436D01*
X15933491Y-9099436D02*
X15923968Y-9108960D01*
X15923968Y-9108960D02*
X15904920Y-9118484D01*
X15904920Y-9118484D02*
X15847777Y-9118484D01*
X15847777Y-9118484D02*
X15828729Y-9108960D01*
X15828729Y-9108960D02*
X15819206Y-9099436D01*
X16123968Y-8918484D02*
X16028729Y-8918484D01*
X16028729Y-8918484D02*
X16019206Y-9013722D01*
X16019206Y-9013722D02*
X16028729Y-9004198D01*
X16028729Y-9004198D02*
X16047777Y-8994674D01*
X16047777Y-8994674D02*
X16095396Y-8994674D01*
X16095396Y-8994674D02*
X16114444Y-9004198D01*
X16114444Y-9004198D02*
X16123968Y-9013722D01*
X16123968Y-9013722D02*
X16133491Y-9032770D01*
X16133491Y-9032770D02*
X16133491Y-9080389D01*
X16133491Y-9080389D02*
X16123968Y-9099436D01*
X16123968Y-9099436D02*
X16114444Y-9108960D01*
X16114444Y-9108960D02*
X16095396Y-9118484D01*
X16095396Y-9118484D02*
X16047777Y-9118484D01*
X16047777Y-9118484D02*
X16028729Y-9108960D01*
X16028729Y-9108960D02*
X16019206Y-9099436D01*
X16371587Y-9118484D02*
X16371587Y-8918484D01*
X16457301Y-9118484D02*
X16457301Y-9013722D01*
X16457301Y-9013722D02*
X16447777Y-8994674D01*
X16447777Y-8994674D02*
X16428730Y-8985150D01*
X16428730Y-8985150D02*
X16400158Y-8985150D01*
X16400158Y-8985150D02*
X16381110Y-8994674D01*
X16381110Y-8994674D02*
X16371587Y-9004198D01*
X16581110Y-9118484D02*
X16562063Y-9108960D01*
X16562063Y-9108960D02*
X16552539Y-9099436D01*
X16552539Y-9099436D02*
X16543015Y-9080389D01*
X16543015Y-9080389D02*
X16543015Y-9023246D01*
X16543015Y-9023246D02*
X16552539Y-9004198D01*
X16552539Y-9004198D02*
X16562063Y-8994674D01*
X16562063Y-8994674D02*
X16581110Y-8985150D01*
X16581110Y-8985150D02*
X16609682Y-8985150D01*
X16609682Y-8985150D02*
X16628730Y-8994674D01*
X16628730Y-8994674D02*
X16638253Y-9004198D01*
X16638253Y-9004198D02*
X16647777Y-9023246D01*
X16647777Y-9023246D02*
X16647777Y-9080389D01*
X16647777Y-9080389D02*
X16638253Y-9099436D01*
X16638253Y-9099436D02*
X16628730Y-9108960D01*
X16628730Y-9108960D02*
X16609682Y-9118484D01*
X16609682Y-9118484D02*
X16581110Y-9118484D01*
X16762063Y-9118484D02*
X16743015Y-9108960D01*
X16743015Y-9108960D02*
X16733491Y-9089912D01*
X16733491Y-9089912D02*
X16733491Y-8918484D01*
X16914444Y-9108960D02*
X16895396Y-9118484D01*
X16895396Y-9118484D02*
X16857301Y-9118484D01*
X16857301Y-9118484D02*
X16838253Y-9108960D01*
X16838253Y-9108960D02*
X16828730Y-9089912D01*
X16828730Y-9089912D02*
X16828730Y-9013722D01*
X16828730Y-9013722D02*
X16838253Y-8994674D01*
X16838253Y-8994674D02*
X16857301Y-8985150D01*
X16857301Y-8985150D02*
X16895396Y-8985150D01*
X16895396Y-8985150D02*
X16914444Y-8994674D01*
X16914444Y-8994674D02*
X16923968Y-9013722D01*
X16923968Y-9013722D02*
X16923968Y-9032770D01*
X16923968Y-9032770D02*
X16828730Y-9051817D01*
X17000158Y-9108960D02*
X17019206Y-9118484D01*
X17019206Y-9118484D02*
X17057301Y-9118484D01*
X17057301Y-9118484D02*
X17076349Y-9108960D01*
X17076349Y-9108960D02*
X17085873Y-9089912D01*
X17085873Y-9089912D02*
X17085873Y-9080389D01*
X17085873Y-9080389D02*
X17076349Y-9061341D01*
X17076349Y-9061341D02*
X17057301Y-9051817D01*
X17057301Y-9051817D02*
X17028730Y-9051817D01*
X17028730Y-9051817D02*
X17009682Y-9042293D01*
X17009682Y-9042293D02*
X17000158Y-9023246D01*
X17000158Y-9023246D02*
X17000158Y-9013722D01*
X17000158Y-9013722D02*
X17009682Y-8994674D01*
X17009682Y-8994674D02*
X17028730Y-8985150D01*
X17028730Y-8985150D02*
X17057301Y-8985150D01*
X17057301Y-8985150D02*
X17076349Y-8994674D01*
X17152539Y-9194674D02*
X17162063Y-9185150D01*
X17162063Y-9185150D02*
X17181111Y-9156579D01*
X17181111Y-9156579D02*
X17190634Y-9137531D01*
X17190634Y-9137531D02*
X17200158Y-9108960D01*
X17200158Y-9108960D02*
X17209682Y-9061341D01*
X17209682Y-9061341D02*
X17209682Y-9023246D01*
X17209682Y-9023246D02*
X17200158Y-8975627D01*
X17200158Y-8975627D02*
X17190634Y-8947055D01*
X17190634Y-8947055D02*
X17181111Y-8928008D01*
X17181111Y-8928008D02*
X17162063Y-8899436D01*
X17162063Y-8899436D02*
X17152539Y-8889912D01*
M02*
