%TF.GenerationSoftware,KiCad,Pcbnew,7.0.8*%
%TF.CreationDate,2023-12-26T11:26:10-03:00*%
%TF.ProjectId,teste2,74657374-6532-42e6-9b69-6361645f7063,rev?*%
%TF.SameCoordinates,Original*%
%TF.FileFunction,Legend,Top*%
%TF.FilePolarity,Positive*%
%FSLAX45Y45*%
G04 Gerber Fmt 4.5, Leading zero omitted, Abs format (unit mm)*
G04 Created by KiCad (PCBNEW 7.0.8) date 2023-12-26 11:26:10*
%MOMM*%
%LPD*%
G01*
G04 APERTURE LIST*
%ADD10C,0.150000*%
%ADD11C,0.120000*%
G04 APERTURE END LIST*
D10*
X14827667Y-5808482D02*
X14827667Y-5879910D01*
X14827667Y-5879910D02*
X14822905Y-5894196D01*
X14822905Y-5894196D02*
X14813381Y-5903720D01*
X14813381Y-5903720D02*
X14799095Y-5908482D01*
X14799095Y-5908482D02*
X14789571Y-5908482D01*
X14918143Y-5841815D02*
X14918143Y-5908482D01*
X14894333Y-5803720D02*
X14870524Y-5875148D01*
X14870524Y-5875148D02*
X14932428Y-5875148D01*
X14362667Y-5808482D02*
X14362667Y-5879910D01*
X14362667Y-5879910D02*
X14357905Y-5894196D01*
X14357905Y-5894196D02*
X14348381Y-5903720D01*
X14348381Y-5903720D02*
X14334095Y-5908482D01*
X14334095Y-5908482D02*
X14324571Y-5908482D01*
X14400762Y-5808482D02*
X14462667Y-5808482D01*
X14462667Y-5808482D02*
X14429333Y-5846577D01*
X14429333Y-5846577D02*
X14443619Y-5846577D01*
X14443619Y-5846577D02*
X14453143Y-5851339D01*
X14453143Y-5851339D02*
X14457905Y-5856101D01*
X14457905Y-5856101D02*
X14462667Y-5865625D01*
X14462667Y-5865625D02*
X14462667Y-5889434D01*
X14462667Y-5889434D02*
X14457905Y-5898958D01*
X14457905Y-5898958D02*
X14453143Y-5903720D01*
X14453143Y-5903720D02*
X14443619Y-5908482D01*
X14443619Y-5908482D02*
X14415048Y-5908482D01*
X14415048Y-5908482D02*
X14405524Y-5903720D01*
X14405524Y-5903720D02*
X14400762Y-5898958D01*
X13897667Y-5808482D02*
X13897667Y-5879910D01*
X13897667Y-5879910D02*
X13892905Y-5894196D01*
X13892905Y-5894196D02*
X13883381Y-5903720D01*
X13883381Y-5903720D02*
X13869095Y-5908482D01*
X13869095Y-5908482D02*
X13859571Y-5908482D01*
X13940524Y-5818006D02*
X13945286Y-5813244D01*
X13945286Y-5813244D02*
X13954809Y-5808482D01*
X13954809Y-5808482D02*
X13978619Y-5808482D01*
X13978619Y-5808482D02*
X13988143Y-5813244D01*
X13988143Y-5813244D02*
X13992905Y-5818006D01*
X13992905Y-5818006D02*
X13997667Y-5827529D01*
X13997667Y-5827529D02*
X13997667Y-5837053D01*
X13997667Y-5837053D02*
X13992905Y-5851339D01*
X13992905Y-5851339D02*
X13935762Y-5908482D01*
X13935762Y-5908482D02*
X13997667Y-5908482D01*
X12412667Y-7290482D02*
X12412667Y-7361910D01*
X12412667Y-7361910D02*
X12407905Y-7376196D01*
X12407905Y-7376196D02*
X12398381Y-7385720D01*
X12398381Y-7385720D02*
X12384095Y-7390482D01*
X12384095Y-7390482D02*
X12374571Y-7390482D01*
X12450762Y-7290482D02*
X12517428Y-7290482D01*
X12517428Y-7290482D02*
X12474571Y-7390482D01*
X15164482Y-8161333D02*
X15235910Y-8161333D01*
X15235910Y-8161333D02*
X15250196Y-8166095D01*
X15250196Y-8166095D02*
X15259720Y-8175619D01*
X15259720Y-8175619D02*
X15264482Y-8189905D01*
X15264482Y-8189905D02*
X15264482Y-8199428D01*
X15164482Y-8070857D02*
X15164482Y-8089905D01*
X15164482Y-8089905D02*
X15169244Y-8099428D01*
X15169244Y-8099428D02*
X15174006Y-8104190D01*
X15174006Y-8104190D02*
X15188291Y-8113714D01*
X15188291Y-8113714D02*
X15207339Y-8118476D01*
X15207339Y-8118476D02*
X15245434Y-8118476D01*
X15245434Y-8118476D02*
X15254958Y-8113714D01*
X15254958Y-8113714D02*
X15259720Y-8108952D01*
X15259720Y-8108952D02*
X15264482Y-8099428D01*
X15264482Y-8099428D02*
X15264482Y-8080381D01*
X15264482Y-8080381D02*
X15259720Y-8070857D01*
X15259720Y-8070857D02*
X15254958Y-8066095D01*
X15254958Y-8066095D02*
X15245434Y-8061333D01*
X15245434Y-8061333D02*
X15221625Y-8061333D01*
X15221625Y-8061333D02*
X15212101Y-8066095D01*
X15212101Y-8066095D02*
X15207339Y-8070857D01*
X15207339Y-8070857D02*
X15202577Y-8080381D01*
X15202577Y-8080381D02*
X15202577Y-8099428D01*
X15202577Y-8099428D02*
X15207339Y-8108952D01*
X15207339Y-8108952D02*
X15212101Y-8113714D01*
X15212101Y-8113714D02*
X15221625Y-8118476D01*
X15292667Y-5808482D02*
X15292667Y-5879910D01*
X15292667Y-5879910D02*
X15287905Y-5894196D01*
X15287905Y-5894196D02*
X15278381Y-5903720D01*
X15278381Y-5903720D02*
X15264095Y-5908482D01*
X15264095Y-5908482D02*
X15254571Y-5908482D01*
X15387905Y-5808482D02*
X15340286Y-5808482D01*
X15340286Y-5808482D02*
X15335524Y-5856101D01*
X15335524Y-5856101D02*
X15340286Y-5851339D01*
X15340286Y-5851339D02*
X15349809Y-5846577D01*
X15349809Y-5846577D02*
X15373619Y-5846577D01*
X15373619Y-5846577D02*
X15383143Y-5851339D01*
X15383143Y-5851339D02*
X15387905Y-5856101D01*
X15387905Y-5856101D02*
X15392667Y-5865625D01*
X15392667Y-5865625D02*
X15392667Y-5889434D01*
X15392667Y-5889434D02*
X15387905Y-5898958D01*
X15387905Y-5898958D02*
X15383143Y-5903720D01*
X15383143Y-5903720D02*
X15373619Y-5908482D01*
X15373619Y-5908482D02*
X15349809Y-5908482D01*
X15349809Y-5908482D02*
X15340286Y-5903720D01*
X15340286Y-5903720D02*
X15335524Y-5898958D01*
X13432667Y-5808482D02*
X13432667Y-5879910D01*
X13432667Y-5879910D02*
X13427905Y-5894196D01*
X13427905Y-5894196D02*
X13418381Y-5903720D01*
X13418381Y-5903720D02*
X13404095Y-5908482D01*
X13404095Y-5908482D02*
X13394571Y-5908482D01*
X13532667Y-5908482D02*
X13475524Y-5908482D01*
X13504095Y-5908482D02*
X13504095Y-5808482D01*
X13504095Y-5808482D02*
X13494571Y-5822768D01*
X13494571Y-5822768D02*
X13485048Y-5832291D01*
X13485048Y-5832291D02*
X13475524Y-5837053D01*
D11*
%TO.C,J4*%
X14728000Y-5963000D02*
X14861000Y-5963000D01*
X14728000Y-6096000D02*
X14728000Y-5963000D01*
X14728000Y-6223000D02*
X14728000Y-7245000D01*
X14728000Y-6223000D02*
X14994000Y-6223000D01*
X14728000Y-7245000D02*
X14994000Y-7245000D01*
X14994000Y-6223000D02*
X14994000Y-7245000D01*
%TO.C,J3*%
X14263000Y-5963000D02*
X14396000Y-5963000D01*
X14263000Y-6096000D02*
X14263000Y-5963000D01*
X14263000Y-6223000D02*
X14263000Y-7245000D01*
X14263000Y-6223000D02*
X14529000Y-6223000D01*
X14263000Y-7245000D02*
X14529000Y-7245000D01*
X14529000Y-6223000D02*
X14529000Y-7245000D01*
%TO.C,J2*%
X13798000Y-5963000D02*
X13931000Y-5963000D01*
X13798000Y-6096000D02*
X13798000Y-5963000D01*
X13798000Y-6223000D02*
X13798000Y-7245000D01*
X13798000Y-6223000D02*
X14064000Y-6223000D01*
X13798000Y-7245000D02*
X14064000Y-7245000D01*
X14064000Y-6223000D02*
X14064000Y-7245000D01*
%TO.C,J7*%
X12579000Y-7245000D02*
X12446000Y-7245000D01*
X12579000Y-7112000D02*
X12579000Y-7245000D01*
X12579000Y-6985000D02*
X12579000Y-5963000D01*
X12579000Y-6985000D02*
X12313000Y-6985000D01*
X12579000Y-5963000D02*
X12313000Y-5963000D01*
X12313000Y-6985000D02*
X12313000Y-5963000D01*
%TO.C,J6*%
X15119000Y-7995000D02*
X15119000Y-8128000D01*
X14986000Y-7995000D02*
X15119000Y-7995000D01*
X14859000Y-7995000D02*
X13837000Y-7995000D01*
X14859000Y-7995000D02*
X14859000Y-8261000D01*
X13837000Y-7995000D02*
X13837000Y-8261000D01*
X14859000Y-8261000D02*
X13837000Y-8261000D01*
%TO.C,J5*%
X15193000Y-5963000D02*
X15326000Y-5963000D01*
X15193000Y-6096000D02*
X15193000Y-5963000D01*
X15193000Y-6223000D02*
X15193000Y-7245000D01*
X15193000Y-6223000D02*
X15459000Y-6223000D01*
X15193000Y-7245000D02*
X15459000Y-7245000D01*
X15459000Y-6223000D02*
X15459000Y-7245000D01*
%TO.C,J1*%
X13333000Y-5963000D02*
X13466000Y-5963000D01*
X13333000Y-6096000D02*
X13333000Y-5963000D01*
X13333000Y-6223000D02*
X13333000Y-7245000D01*
X13333000Y-6223000D02*
X13599000Y-6223000D01*
X13333000Y-7245000D02*
X13599000Y-7245000D01*
X13599000Y-6223000D02*
X13599000Y-7245000D01*
%TD*%
M02*
